<?xml version="1.0" encoding="UTF-8" standalone="no"?>
<svg
   id="Layer_1"
   data-name="Layer 1"
   viewBox="0 0 7249.9995 2620.1161"
   version="1.1"
   sodipodi:docname="salty-logo.svg"
   width="7250"
   height="2620.116"
   inkscape:version="1.1 (c68e22c387, 2021-05-23)"
   inkscape:export-filename="X:\Pictures\salty smaller.png"
   inkscape:export-xdpi="13.513854"
   inkscape:export-ydpi="13.513854"
   xmlns:inkscape="http://www.inkscape.org/namespaces/inkscape"
   xmlns:sodipodi="http://sodipodi.sourceforge.net/DTD/sodipodi-0.dtd"
   xmlns="http://www.w3.org/2000/svg"
   xmlns:svg="http://www.w3.org/2000/svg"
   xmlns:rdf="http://www.w3.org/1999/02/22-rdf-syntax-ns#"
   xmlns:cc="http://creativecommons.org/ns#"
   xmlns:dc="http://purl.org/dc/elements/1.1/">
  <metadata
     id="metadata1530">
    <rdf:RDF>
      <cc:Work
         rdf:about="">
        <dc:format>image/svg+xml</dc:format>
        <dc:type
           rdf:resource="http://purl.org/dc/dcmitype/StillImage" />
      </cc:Work>
    </rdf:RDF>
  </metadata>
  <sodipodi:namedview
     pagecolor="#ffffff"
     bordercolor="#666666"
     borderopacity="1"
     objecttolerance="10"
     gridtolerance="10"
     guidetolerance="10"
     inkscape:pageopacity="0"
     inkscape:pageshadow="2"
     inkscape:window-width="1920"
     inkscape:window-height="986"
     id="namedview1528"
     showgrid="false"
     inkscape:zoom="0.10830399"
     inkscape:cx="3079.2956"
     inkscape:cy="1117.2257"
     inkscape:window-x="-11"
     inkscape:window-y="-11"
     inkscape:window-maximized="1"
     inkscape:current-layer="Layer_1"
     inkscape:document-rotation="0"
     inkscape:pagecheckerboard="0" />
  <defs
     id="defs1511">
    <rect
       x="4164.2046"
       y="360.09753"
       width="23.083176"
       height="60.016254"
       id="rect862" />
    <rect
       x="2533.1001"
       y="0"
       width="4525.7349"
       height="2636.0986"
       id="rect856" />
    <style
       id="style1509">
      .cls-1 {
        fill: #303030;
      }
      .cls-2 {
        fill: #b298dc;
      } 
    </style>
  </defs>
  <g
     aria-label="salty"
     transform="matrix(1.2235022,0,0,1.2356617,-546.76792,-138.77487)"
     id="text854"
     style="font-size:1808px;line-height:1.25;font-family:Raleway;-inkscape-font-specification:Raleway;white-space:pre;shape-inside:url(#rect856);fill:#ffffff;stroke-width:0.999007;fill-opacity:1">
    <path
       d="m 2963.4036,1691.712 q -108.48,0 -202.496,-36.16 -92.208,-37.968 -162.72,-115.712 l 32.544,-43.392 q 75.936,72.32 155.488,106.672 79.552,34.352 175.376,34.352 131.984,0 213.344,-56.048 81.36,-56.048 81.36,-155.488 0,-65.088 -37.968,-101.248 -36.16,-36.16 -106.672,-57.856 -68.704,-23.504 -168.144,-47.008 -97.632,-25.312 -162.72,-48.816 -63.28,-25.312 -95.824,-66.896 -32.544,-41.584 -32.544,-115.71197 0,-94.016 45.2,-151.872 47.008,-59.664 122.944,-88.592 77.744,-28.928 169.952,-28.928 112.096,0 193.456,37.968 81.36,37.968 117.52,95.824 l -39.776,34.352 q -39.776,-56.048 -115.712,-84.976 -74.128,-28.928 -162.72,-28.928 -72.32,0 -133.792,21.696 -61.472,21.696 -99.44,66.896 -37.968,43.392 -37.968,117.52 0,59.66397 27.12,92.20797 27.12,32.544 81.36,52.432 54.24,18.08 137.408,39.776 110.288,27.12 189.84,56.048 81.36,27.12 124.752,72.32 43.392,45.2 43.392,126.56 0,126.56 -97.632,200.688 -95.824,72.32 -254.928,72.32 z"
       style="font-weight:200;font-size:1808px;-inkscape-font-specification:'Raleway Ultra-Light';fill:#ffffff;fill-opacity:1"
       id="path152" />
    <path
       d="m 3458.7929,1404.24 q 0,-83.168 50.624,-142.832 50.624,-61.472 137.408,-95.824 86.784,-36.16 202.496,-36.16 75.936,0 157.296,14.464 81.36,12.656 146.448,36.16 v -99.44 q 0,-137.40797 -81.36,-220.57597 -79.552,-84.976 -215.152,-84.976 -68.704,0 -146.448,28.928 -75.936,28.928 -155.488,84.976 l -30.736,-45.2 q 92.208,-63.28 175.376,-94.016 83.168,-30.736 160.912,-30.736 162.72,0 258.544,99.44 95.824,97.632 95.824,265.77597 v 495.392 q 0,19.888 7.232,30.736 9.04,9.04 25.312,9.04 v 54.24 q -12.656,0 -21.696,0 -7.232,0 -12.656,-1.808 -25.312,-5.424 -39.776,-27.12 -14.464,-21.696 -16.272,-47.008 v -81.36 q -65.088,83.168 -168.144,130.176 -103.056,45.2 -220.576,45.2 -86.784,0 -157.296,-37.968 -70.512,-37.968 -112.096,-103.056 -39.776,-66.896 -39.776,-146.448 z m 661.728,81.36 q 16.272,-21.696 23.504,-41.584 9.04,-21.696 9.04,-37.968 v -171.76 q -70.512,-27.12 -146.448,-39.776 -74.128,-14.464 -153.68,-14.464 -150.064,0 -242.272,61.472 -92.208,59.664 -92.208,159.104 0,65.088 32.544,119.328 34.352,54.24 92.208,86.784 59.664,32.544 131.984,32.544 112.096,0 204.304,-41.584 94.016,-43.392 141.024,-112.096 z"
       style="font-weight:200;font-size:1808px;-inkscape-font-specification:'Raleway Ultra-Light';fill:#ffffff;fill-opacity:1"
       id="path154" />
    <path
       d="m 4505.6226,353.79203 h 63.28 V 1512.72 q 0,57.856 28.928,86.784 30.736,27.12 79.552,27.12 23.504,0 52.432,-5.424 30.736,-5.424 54.24,-12.656 l 14.464,50.624 q -27.12,9.04 -68.704,16.272 -39.776,7.232 -68.704,7.232 -68.704,0 -112.096,-41.584 -43.392,-43.392 -43.392,-115.712 z"
       style="font-weight:200;font-size:1808px;-inkscape-font-specification:'Raleway Ultra-Light';fill:#ffffff;fill-opacity:1"
       id="path156" />
    <path
       d="m 5335.4931,1630.24 q -3.616,1.808 -28.928,16.272 -25.312,12.656 -65.088,25.312 -37.968,10.848 -88.592,10.848 -47.008,0 -86.784,-18.08 -39.776,-18.08 -63.28,-52.432 -23.504,-36.16 -23.504,-84.976 V 787.71203 h -133.792 v -54.24 h 133.792 v -323.632 h 61.472 v 323.632 h 222.384 v 54.24 h -222.384 V 1518.144 q 3.616,52.432 39.776,79.552 36.16,27.12 83.168,27.12 59.664,0 101.248,-19.888 43.392,-21.696 47.008,-25.312 z"
       style="font-weight:200;font-size:1808px;-inkscape-font-specification:'Raleway Ultra-Light';fill:#ffffff;fill-opacity:1"
       id="path158" />
    <path
       d="m 5572.3398,2017.152 q 28.928,1.808 52.432,0 23.504,-1.808 32.544,-12.656 10.848,-7.232 25.312,-32.544 16.272,-23.504 45.2,-94.016 30.736,-68.704 88.592,-204.304 l -428.496,-940.15997 h 66.896 l 394.144,871.45597 370.64,-871.45597 h 63.28 L 5745.9078,1991.84 q -9.04,21.696 -23.504,37.968 -14.464,18.08 -32.544,27.12 -16.272,10.848 -43.392,12.656 -16.272,3.616 -34.352,5.424 -18.08,1.808 -39.776,0 z"
       style="font-weight:200;-inkscape-font-specification:'Raleway Ultra-Light';fill:#ffffff;fill-opacity:1"
       id="path160" />
  </g>
  <text
     xml:space="preserve"
     id="text860"
     style="font-style:normal;font-weight:normal;font-size:40px;line-height:1.25;font-family:sans-serif;white-space:pre;shape-inside:url(#rect862);fill:#000000;fill-opacity:1;stroke:none" />
  <g
     id="g1525"
     style="fill:#ffffff;fill-opacity:1">
    <path
       id="path1515"
       style="opacity:0.99700002;fill:#ffffff;fill-opacity:1"
       d="m 1422.5801,0.0625 c -8.5442,0.0178997 -17.3164,0.46601568 -26.3008,1.4082031 -83.71,8.7699999 -137.9884,55.5084379 -155.8984,72.3984379 L 294.14062,1411.8691 C 252.80063,1357.2491 173.11008,1350.24 124.33008,1394 c -49.000008,43.94 -50.370008,124.3993 0,171.2793 -35.860008,56.98 -98.099846,175.9312 -86.339846,326.4512 6.82,87.21 36.360012,151.869 63.999996,211.209 31,66.5 89.17,169.51 197,273 a 906.55,906.55 0 0 0 220,151.2207 c 76.78,37.45 245.84954,117.1296 462.26954,85.9296 62.86003,-9.06 174.41933,-33.92 295.85933,-114 56.19,28.51 125.0702,6.2199 153.4102,-47.6601 29.46,-56.04 5.6809,-128.3906 -53.6191,-156.3906 L 2505.8496,1039.5098 A 237.92,237.92 0 0 0 2490.9492,793.75977 L 1604.7891,70.349609 C 1592.5097,59.397734 1523.4012,-0.14871651 1422.5801,0.0625 Z m -5.7227,188.49414 a 77.34,77.34 0 0 1 23.8418,3.75391 l 848.9414,668.35937 a 95.29,95.29 0 0 1 0,108 l -1092.8203,1197.05078 -753.99999,-633 899.46879,-1300.46093 c 4.39,-6.24 30.6315,-42.31993 72.3515,-43.66993 a 77.34,77.34 0 0 1 2.2168,-0.0332 z M 280.17188,1985.5117 c 20.01093,-0.3947 50.12742,15.408 76.85742,42.168 35.64,35.68 51.8914,77.3408 36.1914,93.0508 -15.7,15.71 -57.36,-0.5114 -93,-36.1914 -35.64,-35.68 -51.8914,-77.3391 -36.1914,-93.0391 3.925,-3.925 9.47224,-5.8567 16.14258,-5.9883 z m 147.16992,262.2012 c 20.00859,-0.3947 50.11992,15.408 76.85742,42.168 35.65,35.68 51.88164,77.35 36.18164,93 -15.7,15.65 -57.36,-0.5014 -93,-36.1914 -35.64,-35.69 -51.83164,-77.2903 -36.18164,-92.9903 3.925,-3.925 9.47305,-5.8547 16.14258,-5.9863 z m 277.81054,71.9687 c 20.0086,-0.3946 50.11993,15.408 76.85743,42.168 35.65,35.68 51.87968,77.3408 36.17968,93.0508 -15.7,15.71 -57.36,-0.5095 -93,-36.1895 -35.64,-35.68 -51.87968,-77.341 -36.17968,-93.041 3.925,-3.925 9.47304,-5.8567 16.14257,-5.9883 z"
       inkscape:export-xdpi="26.490431"
       inkscape:export-ydpi="26.490431" />
  </g>
</svg>
